<svg xmlns="http://www.w3.org/2000/svg" xmlns:xlink="http://www.w3.org/1999/xlink" data-name="Layer 1" preserveAspectRatio="xMidYMid meet" version="1.0" viewBox="0.0 0.0 500.0 500.0" zoomAndPan="magnify" style="fill: rgb(0, 0, 0);" original_string_length="1471" width="39.28565564324651px" height="39.28565564324651px"><g id="__id2_seyqsos6wt"><path d="M250,0C111.93,0,0,111.93,0,250s111.93,250,250,250,250-111.93,250-250S388.07,0,250,0Zm160.51,410.51c-20.85,20.85-45.13,37.23-72.16,48.66-27.97,11.83-57.7,17.83-88.35,17.83s-60.38-6-88.35-17.83c-27.03-11.43-51.31-27.8-72.16-48.66-20.85-20.85-37.23-45.13-48.66-72.16-11.83-27.97-17.83-57.7-17.83-88.35s6-60.38,17.83-88.35c11.43-27.03,27.8-51.31,48.66-72.16,20.85-20.85,45.13-37.23,72.16-48.66,27.97-11.83,57.7-17.83,88.35-17.83s60.38,6,88.35,17.83c27.03,11.43,51.31,27.8,72.16,48.66,20.85,20.85,37.23,45.13,48.66,72.16,11.83,27.97,17.83,57.7,17.83,88.35s-6,60.38-17.83,88.35c-11.43,27.03-27.8,51.31-48.66,72.16Z" style="fill: rgb(99, 100, 97);"/></g><g id="__id3_seyqsos6wt"><path d="M381.39,157.09l-38.48-38.48c-2.87-2.87-7.53-2.87-10.4,0l-82.51,82.51-82.51-82.51c-2.87-2.87-7.53-2.87-10.4,0l-38.48,38.48c-2.87,2.87-2.87,7.53,0,10.4l82.51,82.51-82.51,82.51c-2.87,2.87-2.87,7.53,0,10.4l38.48,38.48c2.87,2.87,7.53,2.87,10.4,0l82.51-82.51,82.51,82.51c2.87,2.87,7.53,2.87,10.4,0l38.48-38.48c2.87-2.87,2.87-7.53,0-10.4l-82.51-82.51,82.51-82.51c2.87-2.87,2.87-7.53,0-10.4Z" style="fill: rgb(99, 100, 97);"/></g></svg>