<svg xmlns="http://www.w3.org/2000/svg" xmlns:xlink="http://www.w3.org/1999/xlink" preserveAspectRatio="xMidYMid meet" version="1.0" viewBox="80.7 62.4 330.7 370.2" zoomAndPan="magnify" style="fill: rgb(0, 0, 0);" original_string_length="7856" width="57.7590646054488px" height="64.56806002641633px"><g><g><g><g><g><g><g clip-rule="evenodd" fill-rule="evenodd"><g id="__id6_seyqsos6wt"><path d="M179.764,398.129c1.318,2.177,0.619,5.011-1.56,6.324 l-33.481,20.189c-2.196,1.325-5.05,0.6-6.348-1.61l-49.025-83.42c-1.308-2.225-0.53-5.091,1.723-6.351l33.056-18.487 c2.165-1.21,4.901-0.487,6.185,1.634l3.363,5.559l2.981,4.925l39.615,65.466L179.764,398.129z" style="fill: rgb(72, 202, 228);"/></g><g id="__id7_seyqsos6wt"><path d="M301.443,299.898 c12.831,1.066,24.965-1.068,35.928-4.834c18.787-6.451,34.112-17.693,43.508-25.817c5.83-5.038,14.51-3.091,17.952,3.117 c0.581,1.042,1.013,2.206,1.258,3.475c0.283,1.466,0.48,2.938,0.605,4.397c0.984,11.244-2.165,22.452-8.578,31.738 c-37.812,54.75-116.013,74.384-156.117,64.551c-35.235-8.64-55.114,9.612-59.727,15.831l-39.615-65.466h0.002l53.681-36.111 l3.053-2.088c0,0,20.66-18.718,46.446-15.512c19.38,2.41,41.422,11.122,51.168,15.3 C295.975,290.61,299.84,294.759,301.443,299.898z" style="fill: rgb(254, 231, 185);"/></g><g id="__id8_seyqsos6wt"><path d="M197.078 166.506L234.787 214.361 190.34 214.361 190.34 290.78 136.659 326.891 136.657 326.891 133.676 321.966 133.678 321.964 133.678 214.361 86.89 214.361 160.839 120.519z" style="fill: rgb(183, 251, 148);"/></g><g id="__id9_seyqsos6wt"><path d="M405.633,246.867c0,9.286-2.472,17.993-6.802,25.498 c-3.441-6.209-12.122-8.155-17.952-3.117c-9.396,8.124-24.721,19.366-43.508,25.817 c-19.82-7.042-34.011-25.961-34.011-48.197c0-28.241,22.894-51.137,51.137-51.137c4.082,0,8.055,0.478,11.861,1.385 C388.881,202.461,405.633,222.708,405.633,246.867z" style="fill: rgb(255, 228, 94);"/></g><g id="__id10_seyqsos6wt"><path d="M325.537,125.514c0.996,7.246-4.07,13.93-11.316,14.926 l-2.568,0.353l-83.416,11.465c-3.202,0.439-6.293-0.303-8.835-1.896c-3.206-2.011-5.535-5.376-6.091-9.42l-0.17-1.239 c-0.996-7.246,4.07-13.927,11.319-14.923l11.931-1.639l70.686-9.718l3.367-0.463c7.246-0.996,13.927,4.071,14.924,11.319 L325.537,125.514z" style="fill: rgb(202, 240, 248);"/></g><g id="__id11_seyqsos6wt"><path d="M366.359,197.114c-3.806-0.907-7.779-1.385-11.861-1.385 c-28.243,0-51.137,22.896-51.137,51.137c0,22.236,14.191,41.156,34.011,48.197c-10.963,3.766-23.098,5.9-35.928,4.834 c-1.603-5.139-5.467-9.288-10.435-11.417c-9.746-4.178-31.788-12.89-51.168-15.3c-25.786-3.206-46.446,15.512-46.446,15.512 l-3.053,2.088v-76.419h44.446l-37.709-47.854c6.113-5.16,14.33-11.702,20.069-14.818c0.77-0.418,1.524-0.862,2.256-1.327 c2.542,1.594,5.633,2.335,8.834,1.896l83.415-11.465c3.101,5.076,7.445,9.417,12.778,12.528 C342.188,163.672,356.768,178.876,366.359,197.114z" style="fill: rgb(254, 109, 115);"/></g><g id="__id12_seyqsos6wt"><path d="M323.945,68.179l-15.101,38.511 c-0.754,2.227-1.342,4.476-1.769,6.732l-70.686,9.718c0.389-3.653,0.228-7.409-0.547-11.153 c-0.158-0.763-0.334-1.471-0.518-2.119l-12.372-41.689h18.778l19.92,20.424l20.374-20.424H323.945z" style="fill: rgb(254, 109, 115);"/></g></g></g></g></g><g clip-rule="evenodd" fill-rule="evenodd" id="__id13_seyqsos6wt" style="fill: rgb(51, 51, 51);"><path d="M360.256,222.302v-0.568c0-3.181-2.579-5.76-5.76-5.76 c-3.181,0-5.76,2.579-5.76,5.76v1.481c-5.813,2.121-9.975,7.704-9.975,14.242v0.03c0,8.344,6.788,15.142,15.132,15.154 l1.189,0.002c2.001,0.003,3.629,1.633,3.629,3.635c0,2.005-1.63,3.635-3.635,3.635l-10.555,0c-3.181,0-5.76,2.579-5.76,5.76 c0,3.181,2.579,5.76,5.76,5.76h4.215v0.568c0,3.181,2.579,5.76,5.76,5.76s5.76-2.579,5.76-5.76v-1.481 c5.813-2.121,9.975-7.705,9.975-14.243c0-8.343-6.788-15.142-15.132-15.155l-1.189-0.002c-2.001-0.003-3.629-1.633-3.629-3.635 v-0.03c0-2.005,1.63-3.635,3.635-3.635l10.555,0c3.181,0,5.76-2.579,5.76-5.76s-2.579-5.76-5.76-5.76H360.256z" style="fill: inherit;"/><path d="M405.743,274.75c-0.137-0.708-0.314-1.399-0.53-2.074 c4.051-7.954,6.18-16.817,6.18-25.81c0-12.876-4.423-25.495-12.454-35.53c-7.356-9.19-17.474-15.922-28.704-19.155 c-10.09-18.204-24.876-33.327-42.903-43.837c-2.093-1.222-4.032-2.693-5.779-4.368c15.96-8.39,11.469-34.549-6.742-36.73 l14.496-36.965c0.696-1.774,0.468-3.775-0.605-5.347c-1.073-1.574-2.854-2.515-4.759-2.515l-41.922,0 c-1.529,0-2.998,0.61-4.078,1.692l-16.246,16.289l-15.845-16.243c-1.085-1.111-2.573-1.738-4.123-1.738h-18.778 c-1.819,0-3.53,0.859-4.618,2.316c-1.087,1.457-1.423,3.341-0.905,5.083l12.365,41.667c0.588,2.088,0.921,4.421,1.008,6.608 l-7.128,0.979c-14.148,1.716-20.717,18.408-13.412,30.06c-3.955,2.599-8.35,5.967-12.312,9.175l-32.588-41.353 c-1.092-1.387-2.76-2.196-4.524-2.196c0,0,0,0-0.002,0c-1.764,0-3.43,0.809-4.524,2.196l-73.95,93.841 c-1.366,1.733-1.62,4.092-0.658,6.079c0.965,1.985,2.976,3.245,5.184,3.245l41.026,0v88.41c-2.191-0.329-4.505,0.046-6.6,1.214 L88.26,328.233c-2.453,1.373-4.207,3.621-4.944,6.334c-0.734,2.712-0.355,5.539,1.068,7.963l49.025,83.42 c2.748,4.899,9.523,6.631,14.287,3.624l33.481-20.187c5.993-3.621,6.322-11.15,2.222-16.378 c2.501-2.446,6.912-6.017,13.52-8.844c11.126-4.764,23.811-5.453,37.707-2.045c7.179,1.759,15.267,2.623,23.934,2.623 c17.99-0.002,38.453-3.723,58.304-10.853c15.977-5.741,30.737-13.361,43.87-22.647c14.602-10.322,26.755-22.433,36.12-35.996 c7.26-10.507,10.661-23.119,9.579-35.511C406.283,278.022,406.05,276.344,405.743,274.75L405.743,274.75z M230.668,73.94h8.633 l18.226,18.686c1.078,1.104,2.551,1.728,4.092,1.738l0.031,0c1.531,0,2.998-0.61,4.08-1.692l18.682-18.732l31.085,0 c0,0-12.835,33.168-13.142,34.318l-60.097,8.261C242.482,110.767,232.155,79.98,230.668,73.94L230.668,73.94z M220.298,133.379 c1.21-1.594,2.964-2.621,4.946-2.894l82.484-11.338c2.938-0.461,6.552-1.174,9.041,0.97c1.992,1.442,2.892,3.792,3.062,6.182 c0.713,5.549-3.955,8.741-9.041,8.796l-83.339,11.458C220.478,147.697,216.314,138.601,220.298,133.379L220.298,133.379z M219.635,156.894c2.148,0.826,4.433,1.25,6.758,1.25c0.871,0,1.749-0.06,2.626-0.18l79.873-10.98 c3.403,4.572,7.714,8.443,12.639,11.311c13.586,7.922,25.128,18.754,33.857,31.685c-0.298-0.002-0.593-0.012-0.893-0.012 c-15.197,0-29.484,5.919-40.232,16.666c-10.747,10.747-16.663,25.035-16.663,40.232c0,18.682,9.19,35.864,23.914,46.364 c-5.448,0.943-10.841,1.32-16.145,1.13c-2.556-4.942-6.804-8.906-12.091-11.174c-11.251-4.822-33.06-13.277-52.729-15.723 c-19.32-2.402-35.763,6.13-44.449,11.962v-59.305h38.686c2.206,0,4.217-1.26,5.182-3.245c0.962-1.987,0.708-4.347-0.658-6.08 l-34.229-43.438C211.139,162.446,216.203,158.8,219.635,156.894L219.635,156.894z M98.76,208.601l62.077-78.774l62.077,78.774 H190.34c-3.183,0-5.76,2.58-5.76,5.76v73.352l-45.145,30.368v-103.72c0-3.18-2.577-5.76-5.76-5.76H98.76L98.76,208.601z M142.75,419.105L94.915,337.71l31.049-17.364l48.272,79.772L142.75,419.105L142.75,419.105z M387.376,308.701 c-36.231,52.46-111.786,71.6-150.007,62.23c-8.77-2.15-17.321-2.887-25.414-2.191c-6.878,0.593-13.464,2.22-19.57,4.834 c-6.166,2.64-11.261,6.067-15.07,9.379l-32.888-54.346l49.112-33.037c0.072-0.054,3.448-2.377,3.711-2.602 c0.19-0.168,19.123-16.901,41.876-14.071c18.943,2.355,41.007,11.189,49.613,14.878c0.107,0.051,1.954,0.926,1.98,0.939 c4.998,2.369,7.168,8.313,4.87,13.344l0,0c-2.062,4.518-7.1,6.871-11.888,5.553l-5.33-1.467l-0.021-0.007l-42.654-13.322 c-3.036-0.948-6.266,0.744-7.214,3.782c-0.951,3.036,0.744,6.266,3.78,7.214l46.784,14.612c0.962,0.236,4.172,1.073,9.446,0.473 c6.826-0.862,12.418-4.212,16.171-9.694c1.937-2.83,3.029-5.964,3.254-9.274c10.286,0.014,20.792-1.798,31.323-5.417 c19.584-6.725,35.501-18.344,45.404-26.907c3.638-2.734,7.154-1.491,9.156,1.562c0.878,1.687,0.912,3.636,1.157,5.571 C395.805,290.466,393.114,300.395,387.376,308.701L387.376,308.701z M397.002,262.774c-1.654-0.9-3.466-1.541-5.383-1.882 c-5.208-0.929-10.495,0.53-14.508,3.998c-8.803,7.611-22.711,17.82-39.675,24.036c-17.016-6.905-28.316-23.559-28.316-42.06 c0-25.02,20.355-45.377,45.375-45.377c3.566,0,7.109,0.413,10.531,1.229c20.518,4.872,34.846,23.026,34.846,44.148 C399.873,252.322,398.891,257.715,397.002,262.774z" style="fill: inherit;"/></g></g></g></g></svg>