<svg xmlns="http://www.w3.org/2000/svg" xmlns:xlink="http://www.w3.org/1999/xlink" preserveAspectRatio="xMidYMid meet" version="1.0" viewBox="74.2 62.4 344.7 368.6" zoomAndPan="magnify" style="fill: rgb(0, 0, 0);" original_string_length="10596" width="57.75906460544868px" height="61.684437928149066px"><g><g><g><g><g><g><g><g><g id="__id22_seyqsos6wt"><path clip-rule="evenodd" d="M108.433 335.169H159.99200000000002V386.72799999999995H108.433z" fill-rule="evenodd" style="fill: rgb(133, 211, 86);"/></g><g id="__id23_seyqsos6wt"><path clip-rule="evenodd" d="M108.433 182.652H159.99200000000002V234.21099999999998H108.433z" fill-rule="evenodd" style="fill: rgb(133, 211, 86);"/></g><g id="__id24_seyqsos6wt"><path clip-rule="evenodd" d="M108.433 258.91H159.99200000000002V310.46900000000005H108.433z" fill-rule="evenodd" style="fill: rgb(227, 77, 91);"/></g><g id="__id25_seyqsos6wt"><path clip-rule="evenodd" d="M108.433 106.392H159.99200000000002V157.951H108.433z" fill-rule="evenodd" style="fill: rgb(227, 77, 91);"/></g><g id="__id26_seyqsos6wt"><path clip-rule="evenodd" d="M346.767 134.376L280.57 134.376 280.57 68.179z" fill-rule="evenodd" style="fill: rgb(195, 200, 204);"/></g><g id="__id27_seyqsos6wt"><path clip-rule="evenodd" d="M346.767,363.605v56.481 c0,2.88-2.333,5.213-5.21,5.213H85.191c-2.878,0-5.21-2.333-5.21-5.213l0-346.696c0-2.878,2.333-5.21,5.21-5.21l195.379,0 v66.197l66.197,0v54.991c-0.295,0.269-24.043,21.821-65.316,29.314l-0.432,25.694 c-0.622,37.087,14.714,72.655,42.113,97.658L346.767,363.605L346.767,363.605z M159.992,386.729V335.17h-51.559v51.559 H159.992L159.992,386.729z M159.992,310.469V258.91l-51.559,0v51.559L159.992,310.469L159.992,310.469z M159.992,234.211 v-51.559h-51.559v51.559H159.992L159.992,234.211z M159.992,157.951v-51.559h-51.559v51.559H159.992z" fill-rule="evenodd" style="fill: rgb(236, 240, 241);"/></g><g id="__id28_seyqsos6wt"><path clip-rule="evenodd" d="M412.52,244.375 c0.624,37.087-14.712,72.655-42.11,97.658l-23.64,21.574l-0.002-0.002l-23.635-21.571 c-27.398-25.003-42.734-60.571-42.113-97.658l0.432-25.694c41.273-7.493,65.021-29.045,65.316-29.314 c0.002-0.002,0.002-0.002,0.002-0.002s23.786,21.77,65.318,29.311L412.52,244.375L412.52,244.375z M358.028,322.786 c20.69-18.883,32.287-45.775,31.817-73.783l-0.194-11.491c-19.632-5.136-34.229-13.342-42.878-19.185 c-8.652,5.846-23.249,14.052-42.883,19.188l-0.192,11.489c-0.47,28.008,11.126,54.9,31.814,73.783l11.258,10.274 L358.028,322.786z" fill-rule="evenodd" style="fill: rgb(35, 165, 251);"/></g><g id="__id29_seyqsos6wt"><path clip-rule="evenodd" d="M389.844,249.003 c0.47,28.008-11.126,54.9-31.817,73.783l-11.258,10.275l-11.258-10.275c-20.688-18.883-32.285-45.775-31.814-73.783 l0.192-11.489c19.634-5.136,34.231-13.341,42.883-19.188c8.65,5.844,23.246,14.05,42.878,19.185L389.844,249.003z" fill-rule="evenodd" style="fill: rgb(161, 215, 253);"/></g></g></g></g></g></g><g><g><g id="__id30_seyqsos6wt"><path clip-rule="evenodd" d="M341.556,431.059H85.191 c-6.049,0-10.97-4.922-10.97-10.973l0-346.696c0-6.049,4.921-10.97,10.97-10.97l195.379,0c1.528,0,2.993,0.607,4.073,1.687 l66.197,66.197c1.08,1.08,1.687,2.545,1.687,4.073v54.991c0,3.181-2.579,5.76-5.76,5.76s-5.76-2.579-5.76-5.76v-52.605 l-62.822-62.823H85.741v345.6l255.266,0v-55.934c0-3.181,2.579-5.76,5.76-5.76s5.76,2.579,5.76,5.76v56.481 C352.527,426.137,347.605,431.059,341.556,431.059z" fill-rule="evenodd" style="fill: rgb(51, 51, 51);"/></g><g id="__id31_seyqsos6wt"><path clip-rule="evenodd" d="M346.769,140.137h-66.197c-3.181,0-5.76-2.579-5.76-5.76 V68.179c0-3.181,2.579-5.76,5.76-5.76s5.76,2.578,5.76,5.76v60.438h60.438c3.181,0,5.76,2.579,5.76,5.76 C352.529,137.558,349.95,140.137,346.769,140.137z" fill-rule="evenodd" style="fill: rgb(51, 51, 51);"/></g></g><g><g id="__id32_seyqsos6wt"><path clip-rule="evenodd" d="M228.477,135.108H189.95c-3.181,0-5.76-2.579-5.76-5.76 c0-3.181,2.579-5.76,5.76-5.76h38.526c3.181,0,5.76,2.579,5.76,5.76C234.236,132.53,231.658,135.108,228.477,135.108z" fill-rule="evenodd" style="fill: rgb(51, 51, 51);"/></g><g id="__id33_seyqsos6wt"><path clip-rule="evenodd" d="M255.176,163.713H189.95c-3.181,0-5.76-2.579-5.76-5.76 c0-3.181,2.579-5.76,5.76-5.76h65.225c3.181,0,5.76,2.579,5.76,5.76C260.936,161.134,258.357,163.713,255.176,163.713z" fill-rule="evenodd" style="fill: rgb(51, 51, 51);"/></g></g><g><g id="__id34_seyqsos6wt"><path clip-rule="evenodd" d="M228.477,211.367H189.95c-3.181,0-5.76-2.579-5.76-5.76 s2.579-5.76,5.76-5.76h38.526c3.181,0,5.76,2.579,5.76,5.76S231.658,211.367,228.477,211.367z" fill-rule="evenodd" style="fill: rgb(51, 51, 51);"/></g><g id="__id35_seyqsos6wt"><path clip-rule="evenodd" d="M255.176,239.971H189.95c-3.181,0-5.76-2.579-5.76-5.76 c0-3.181,2.579-5.76,5.76-5.76h65.225c3.181,0,5.76,2.579,5.76,5.76C260.936,237.392,258.357,239.971,255.176,239.971z" fill-rule="evenodd" style="fill: rgb(51, 51, 51);"/></g></g><g><g id="__id36_seyqsos6wt"><path clip-rule="evenodd" d="M228.477,287.626H189.95c-3.181,0-5.76-2.579-5.76-5.76 c0-3.181,2.579-5.76,5.76-5.76h38.526c3.181,0,5.76,2.579,5.76,5.76C234.236,285.047,231.658,287.626,228.477,287.626z" fill-rule="evenodd" style="fill: rgb(51, 51, 51);"/></g><g id="__id37_seyqsos6wt"><path clip-rule="evenodd" d="M255.176,316.23H189.95c-3.181,0-5.76-2.579-5.76-5.76 c0-3.181,2.579-5.76,5.76-5.76h65.225c3.181,0,5.76,2.579,5.76,5.76C260.936,313.651,258.357,316.23,255.176,316.23z" fill-rule="evenodd" style="fill: rgb(51, 51, 51);"/></g></g><g><g id="__id38_seyqsos6wt"><path clip-rule="evenodd" d="M228.477,363.884H189.95c-3.181,0-5.76-2.579-5.76-5.76 s2.579-5.76,5.76-5.76h38.526c3.181,0,5.76,2.579,5.76,5.76S231.658,363.884,228.477,363.884z" fill-rule="evenodd" style="fill: rgb(51, 51, 51);"/></g><g id="__id39_seyqsos6wt"><path clip-rule="evenodd" d="M255.176,392.489H189.95c-3.181,0-5.76-2.579-5.76-5.76 s2.579-5.76,5.76-5.76h65.225c3.181,0,5.76,2.579,5.76,5.76S258.357,392.489,255.176,392.489z" fill-rule="evenodd" style="fill: rgb(51, 51, 51);"/></g></g><g><g id="__id40_seyqsos6wt"><path clip-rule="evenodd" d="M346.77,369.368c-1.391,0-2.783-0.502-3.883-1.505 l-23.639-21.574c-28.605-26.107-44.639-63.287-43.988-102.01l0.432-25.695c0.046-2.747,2.026-5.08,4.73-5.57 c20.474-3.718,36.348-11.091,46.059-16.622c10.57-6.02,16.35-11.231,16.407-11.283c2.202-2.001,5.575-2.003,7.771,0.007 c0.049,0.045,5.829,5.255,16.4,11.274c9.711,5.53,25.585,12.903,46.059,16.62c2.704,0.491,4.684,2.823,4.73,5.57l0.432,25.699 c0.651,38.722-15.382,75.903-43.988,102.01l-23.639,21.574C349.553,368.866,348.162,369.368,346.77,369.368L346.77,369.368z M287.132,223.431l-0.354,21.042c-0.595,35.418,14.07,69.427,40.235,93.307l19.756,18.03l19.756-18.03 c26.165-23.879,40.831-57.888,40.235-93.307l-0.354-21.045c-20.018-4.257-35.611-11.615-45.418-17.238 c-6.396-3.667-11.179-7.054-14.219-9.388c-3.04,2.335-7.823,5.722-14.22,9.389 C322.743,211.815,307.15,219.174,287.132,223.431z" fill-rule="evenodd" style="fill: rgb(51, 51, 51);"/></g><g id="__id41_seyqsos6wt"><path clip-rule="evenodd" d="M346.77,338.819c-1.391,0-2.783-0.502-3.883-1.505 l-11.258-10.275l0,0c-21.91-19.996-34.19-48.475-33.692-78.134l0.193-11.489c0.043-2.584,1.802-4.822,4.302-5.476 c18.752-4.904,32.708-12.706,41.114-18.387c1.949-1.317,4.502-1.317,6.451,0c8.405,5.68,22.361,13.481,41.112,18.385 c2.5,0.654,4.258,2.892,4.302,5.476l0.193,11.492c0.499,29.658-11.782,58.137-33.692,78.133l-11.258,10.275 C349.553,338.317,348.162,338.819,346.77,338.819L346.77,338.819z M339.395,318.53l7.375,6.731l7.375-6.731 c19.47-17.769,30.382-43.075,29.939-69.43l-0.121-7.189c-16.062-4.702-28.619-11.275-37.193-16.704 c-8.575,5.43-21.132,12.004-37.195,16.706l-0.121,7.185C309.013,275.455,319.925,300.761,339.395,318.53L339.395,318.53z" fill-rule="evenodd" style="fill: rgb(51, 51, 51);"/></g></g><g><g><g id="__id42_seyqsos6wt"><path clip-rule="evenodd" d="M159.993,163.713h-51.559c-3.181,0-5.76-2.579-5.76-5.76 v-51.559c0-3.181,2.579-5.76,5.76-5.76h51.559c3.181,0,5.76,2.579,5.76,5.76v51.559 C165.753,161.134,163.174,163.713,159.993,163.713L159.993,163.713z M114.193,152.193h40.039v-40.039h-40.039V152.193z" fill-rule="evenodd" style="fill: rgb(51, 51, 51);"/></g><g><g id="__id43_seyqsos6wt"><path clip-rule="evenodd" d="M126.314,145.832c-1.474,0-2.948-0.562-4.073-1.687 c-2.25-2.25-2.25-5.897,0-8.146l15.798-15.798c2.25-2.25,5.896-2.25,8.146,0c2.25,2.25,2.25,5.897,0,8.146l-15.798,15.798 C129.262,145.27,127.788,145.832,126.314,145.832z" fill-rule="evenodd" style="fill: rgb(51, 51, 51);"/></g><g id="__id44_seyqsos6wt"><path clip-rule="evenodd" d="M142.112,145.832c-1.474,0-2.948-0.562-4.073-1.687 l-15.798-15.798c-2.25-2.25-2.25-5.896,0-8.146c2.25-2.249,5.896-2.249,8.146,0l15.798,15.798 c2.25,2.249,2.25,5.897,0,8.146C145.06,145.27,143.586,145.832,142.112,145.832z" fill-rule="evenodd" style="fill: rgb(51, 51, 51);"/></g></g></g><g><g id="__id45_seyqsos6wt"><path clip-rule="evenodd" d="M128.699,218.899c-1.901,0-3.76-0.941-4.858-2.658 l-4.293-6.714c-1.714-2.68-0.93-6.242,1.75-7.956c2.68-1.714,6.242-0.93,7.956,1.75l1.246,1.949l10.512-6.455 c2.711-1.665,6.258-0.816,7.922,1.895c1.665,2.711,0.816,6.258-1.895,7.923l-15.332,9.414 C130.768,218.624,129.727,218.899,128.699,218.899z" fill-rule="evenodd" style="fill: rgb(51, 51, 51);"/></g><g id="__id46_seyqsos6wt"><path clip-rule="evenodd" d="M159.993,239.971h-51.559c-3.181,0-5.76-2.579-5.76-5.76 v-51.559c0-3.181,2.579-5.76,5.76-5.76h51.559c3.181,0,5.76,2.579,5.76,5.76v51.559 C165.753,237.392,163.174,239.971,159.993,239.971L159.993,239.971z M114.193,228.451h40.039v-40.039h-40.039V228.451z" fill-rule="evenodd" style="fill: rgb(51, 51, 51);"/></g></g><g><g id="__id47_seyqsos6wt"><path clip-rule="evenodd" d="M159.993,316.23h-51.559c-3.181,0-5.76-2.579-5.76-5.76 V258.91c0-3.181,2.579-5.76,5.76-5.76h51.559c3.181,0,5.76,2.579,5.76,5.76v51.559 C165.753,313.651,163.174,316.23,159.993,316.23L159.993,316.23z M114.193,304.71h40.039v-40.039h-40.039V304.71z" fill-rule="evenodd" style="fill: rgb(51, 51, 51);"/></g><g><g id="__id48_seyqsos6wt"><path clip-rule="evenodd" d="M126.314,298.349c-1.474,0-2.948-0.562-4.073-1.687 c-2.25-2.25-2.25-5.896,0-8.146l15.798-15.798c2.25-2.25,5.896-2.25,8.146,0c2.25,2.25,2.25,5.896,0,8.146l-15.798,15.798 C129.262,297.787,127.788,298.349,126.314,298.349z" fill-rule="evenodd" style="fill: rgb(51, 51, 51);"/></g><g id="__id49_seyqsos6wt"><path clip-rule="evenodd" d="M142.112,298.349c-1.474,0-2.948-0.562-4.073-1.687 l-15.798-15.798c-2.25-2.25-2.25-5.896,0-8.146c2.25-2.25,5.896-2.25,8.146,0l15.798,15.798c2.25,2.25,2.25,5.896,0,8.146 C145.06,297.787,143.586,298.349,142.112,298.349z" fill-rule="evenodd" style="fill: rgb(51, 51, 51);"/></g></g></g><g><g id="__id50_seyqsos6wt"><path clip-rule="evenodd" d="M128.699,371.417c-1.901,0-3.76-0.941-4.858-2.658 l-4.293-6.714c-1.714-2.68-0.93-6.242,1.75-7.956c2.68-1.714,6.242-0.93,7.956,1.749l1.246,1.949l10.512-6.455 c2.711-1.665,6.258-0.816,7.922,1.895c1.664,2.711,0.816,6.258-1.895,7.922l-15.332,9.414 C130.768,371.141,129.727,371.417,128.699,371.417z" fill-rule="evenodd" style="fill: rgb(51, 51, 51);"/></g><g id="__id51_seyqsos6wt"><path clip-rule="evenodd" d="M159.993,392.489h-51.559c-3.181,0-5.76-2.579-5.76-5.76 v-51.559c0-3.181,2.579-5.76,5.76-5.76h51.559c3.181,0,5.76,2.579,5.76,5.76v51.559 C165.753,389.91,163.174,392.489,159.993,392.489L159.993,392.489z M114.193,380.969h40.039v-40.039h-40.039V380.969z" fill-rule="evenodd" style="fill: rgb(51, 51, 51);"/></g></g></g></g></g></g></g></svg>