<svg xmlns="http://www.w3.org/2000/svg" xmlns:xlink="http://www.w3.org/1999/xlink" preserveAspectRatio="xMidYMid meet" version="1.0" viewBox="0.0 -0.0 73.0 75.4" zoomAndPan="magnify" style="fill: rgb(0, 53, 122);" original_string_length="1510" width="87.89857206064197px" height="90.36301800626744px"><g data-name="43" id="__id0_seyqsos6wt"><path d="M36.521,43.107a5.429,5.429,0,1,1,5.428-5.429A5.435,5.435,0,0,1,36.521,43.107Zm-8.429-5.429a8.439,8.439,0,0,1,5.125-7.752A27.62,27.62,0,0,0,17.3,37.677a27.627,27.627,0,0,0,15.909,7.75A8.44,8.44,0,0,1,28.092,37.678Zm16.857,0A8.44,8.44,0,0,1,39.887,45.4a27.606,27.606,0,0,0,15.622-7.724,27.611,27.611,0,0,0-15.632-7.726A8.439,8.439,0,0,1,44.949,37.678Zm23.112,0A31.54,31.54,0,1,1,36.521,6.14,31.569,31.569,0,0,1,68.061,37.68Zm-8.37.06c-.53-.57-1.06-1.14-1.59-1.7a30.443,30.443,0,0,0-21.02-9.31c-13.4-.25-21.66,8.78-22.84,10.11-.3.35-.59.7-.89,1.04.3.35.74.83,1.29,1.38,3.76,3.79,11.66,9.62,22.44,9.37A30.469,30.469,0,0,0,58.1,39.32C58.631,38.79,59.161,38.26,59.691,37.74ZM1.5,8.49A1.525,1.525,0,0,0,3,6.99V3H6.851a1.518,1.518,0,0,0,1.5-1.5A1.531,1.531,0,0,0,6.851,0H1.5A1.516,1.516,0,0,0,0,1.5V6.99A1.51,1.51,0,0,0,1.5,8.49ZM71.542,0H66.191a1.524,1.524,0,0,0-1.5,1.5,1.511,1.511,0,0,0,1.5,1.5h3.851V6.99a1.5,1.5,0,0,0,3,0V1.5A1.526,1.526,0,0,0,71.542,0ZM6.851,72.36H3v-4a1.532,1.532,0,0,0-1.5-1.5A1.524,1.524,0,0,0,0,68.36v5.5a1.516,1.516,0,0,0,1.5,1.5H6.851a1.5,1.5,0,1,0,0-3Zm64.691-5.5a1.524,1.524,0,0,0-1.5,1.5v4H66.191a1.5,1.5,0,0,0,0,3h5.351a1.526,1.526,0,0,0,1.5-1.5v-5.5A1.525,1.525,0,0,0,71.542,66.86Z" style="fill: inherit;"/></g></svg>