<svg xmlns="http://www.w3.org/2000/svg" xmlns:xlink="http://www.w3.org/1999/xlink" preserveAspectRatio="xMidYMid meet" version="1.0" viewBox="3.5 0.0 53.0 60.0" zoomAndPan="magnify" style="fill: rgb(203, 108, 230);" original_string_length="1463" width="43.27733891223979px" height="48.97641234924257px"><g><g id="__id1_seyqsos6wt"><path d="M56.5,49L56.5,49V1c0-0.6-0.4-1-1-1h-45c-0.6,0-1,0.4-1,1v14h2V2h43v46h-9c-0.6,0-1,0.4-1,1v9h-33V43h-2v16 c0,0.6,0.4,1,1,1h35c0.3,0,0.5-0.1,0.7-0.3l10-10c0.1-0.1,0.1-0.2,0.2-0.3v-0.1C56.5,49.2,56.5,49.1,56.5,49z M46.5,50h6.6 l-3.3,3.3l-3.3,3.3L46.5,50L46.5,50z" style="fill: inherit;"/><path d="M16.5,38h6h4v-2h-3V17c0-0.6-0.4-1-1-1h-6c-0.6,0-1,0.4-1,1v6h-5c-0.6,0-1,0.4-1,1v4h-5c-0.6,0-1,0.4-1,1v8 c0,0.6,0.4,1,1,1h6H16.5z M17.5,18h4v18h-4V24V18z M11.5,25h4v11h-4v-7V25z M5.5,30h4v6h-4V30z" style="fill: inherit;"/><path d="M50.5,24V7c0-0.6-0.4-1-1-1h-21c-0.6,0-1,0.4-1,1v17c0,0.6,0.4,1,1,1h21C50.1,25,50.5,24.6,50.5,24z M48.5,12h-12V8h12V12 z M34.5,8v4h-5c0-1.6,0-4,0-4H34.5z M29.5,14h5v9h-5C29.5,23,29.5,18.3,29.5,14z M36.5,23v-9h12v9H36.5z" style="fill: inherit;"/><path d="M28.5 28H49.5V30H28.5z" style="fill: inherit;"/><path d="M28.5 33H49.5V35H28.5z" style="fill: inherit;"/><path d="M28.5 38H49.5V40H28.5z" style="fill: inherit;"/><path d="M14.5 6H20.5V8H14.5z" style="fill: inherit;"/><path d="M14.5 11H23.5V13H14.5z" style="fill: inherit;"/><path d="M14.5 43H21.5V45H14.5z" style="fill: inherit;"/><path d="M24.5 43H31.5V45H24.5z" style="fill: inherit;"/><path d="M34.5 43H41.5V45H34.5z" style="fill: inherit;"/><path d="M14.5 48H21.5V50H14.5z" style="fill: inherit;"/><path d="M24.5 48H31.5V50H24.5z" style="fill: inherit;"/><path d="M34.5 48H41.5V50H34.5z" style="fill: inherit;"/><path d="M14.5 53H21.5V55H14.5z" style="fill: inherit;"/><path d="M24.5 53H31.5V55H24.5z" style="fill: inherit;"/><path d="M34.5 53H41.5V55H34.5z" style="fill: inherit;"/></g></g></svg>