<svg xmlns="http://www.w3.org/2000/svg" xmlns:xlink="http://www.w3.org/1999/xlink" preserveAspectRatio="xMidYMid meet" version="1.0" viewBox="248.9 255.6 502.3 488.9" zoomAndPan="magnify" style="fill: rgb(0, 0, 0);" original_string_length="1392" width="40.31177351452526px" height="39.28565564324643px"><g><g id="__id4_seyqsos6wt"><path d="M503.9,504.87c23.26-47.29,49.9-90.55,84.46-128.49c26.14-28.69,56.27-52.19,92.2-67.58 c24.62-10.55,51.39-14.35,70.59-10.43c-0.18,0.44-0.25,1.16-0.55,1.28c-47.06,19.04-82.3,52.73-111.27,92.94 c-21.94,30.45-41.42,62.71-61.52,94.46c-28.77,45.43-50.36,94.46-71.23,143.83c-0.4,0.94-0.99,1.79-1.83,3.26 c-11.71-17.68-23.09-35.11-34.72-52.35c-19.31-28.61-38.88-57.04-58.15-85.67c-11.48-17.05-22.9-34.16-33.7-51.65 c-3.29-5.33-5.77-11.91-6.19-18.08c-0.43-6.29,0.51-13.78,3.7-19c7.39-12.08,19.59-18.85,32.92-22.78 c7.91-2.33,15.15,1.37,19.98,7.42c13.8,17.26,27.66,34.55,40.22,52.71c10.65,15.4,19.57,32,29.14,48.14 C499.99,496.34,501.55,500.1,503.9,504.87z" style="fill: rgb(243, 106, 34);"/></g><g id="__id5_seyqsos6wt"><path d="M707.65,382.41l-38.04,38.04c10.98,24.26,17.08,51.19,17.08,79.55c0,106.81-86.57,193.39-193.39,193.39 c-106.81,0-193.39-86.57-193.39-193.39c0-106.81,86.57-193.39,193.39-193.39c26.7,0,52.12,5.41,75.25,15.19l38.32-38.32 c-33.93-17.84-72.57-27.92-113.57-27.92c-135,0-244.44,109.44-244.44,244.44S358.3,744.44,493.3,744.44S737.74,635,737.74,500 C737.74,457.38,726.83,417.29,707.65,382.41z" style="fill: rgb(243, 106, 34);"/></g></g></svg>