<svg xmlns="http://www.w3.org/2000/svg" xmlns:xlink="http://www.w3.org/1999/xlink" data-name="Layer 1" preserveAspectRatio="xMidYMid meet" version="1.0" viewBox="316.8 319.6 1366.4 1360.8" zoomAndPan="magnify" style="fill: rgb(0, 37, 204);" original_string_length="2105" width="37.61379342240882px" height="37.477015991781876px"><path d="M0 0H2000V2000H0z" style="fill: none;"/><g id="__id39_s1wvu3p5n6"><path d="M1608.68,438.05c-91.43-99.64-248.4-116.47-361.06-36.8,22.44,21.69,44.44,43.16,66.66,64.39S1359,508,1381.42,529.12l-6.27,7.44c-93.25-71.14-198.71-111.39-316-124.23V319.6H939.89V413c-118.82,11.83-223,54.39-319.81,118.24Q686,466.42,752.21,401.38C642,321.38,482.81,338.3,391.7,438c-89.83,98.29-100.93,252.29-22,345.44,22.28-22.93,44.17-45.87,66.53-68.33,21.58-21.66,43.66-42.84,69.79-68.41C311.8,958.15,341.29,1240,591.17,1502.94c-32.08,31.12-64.93,62.23-96.89,94.23-26.8,26.82-29.16,52-8.28,71.35,20.23,18.77,46.68,15.2,72.7-10.3,29.95-29.33,60.56-58.08,89-88.82,13.35-14.43,22.65-14,39.11-4.87q313.35,172.74,627.05-.52c17.25-9.56,26.45-7.61,39.14,5.89,28,29.72,57.46,58,86.53,86.65,27.78,27.38,54.27,31.23,75.06,11.3,21.18-20.29,17.7-45.12-11.69-73.67-32.12-31.2-65-61.61-95.09-90,251.39-267.21,279.76-548.84,93.34-856.4L1631.74,782.1C1708.75,689,1697.88,535.26,1608.68,438.05ZM1000.74,1529.37C726.24,1529,500,1303,500.53,1029.85c.53-274.71,225.46-499.14,500.26-499.16,273.6,0,499.56,227,498.48,500.91C1498.19,1304.1,1272.19,1529.76,1000.74,1529.37Z" style="fill: inherit;"/></g><g id="__id40_s1wvu3p5n6"><path d="M1117.73,1097.15c-26.11-27-61.19-48.26-61.76-92.71-.06-4.63-6.44-8.86-8.4-13.86-6-15.37-15.91-31-16.16-46.58-1.51-93.79-.75-187.61-.75-281.41V628.16H969.23v37q0,132.44,0,264.87c0,23.94,2.9,47.37-19.59,66.19-8.2,6.87-13.9,26.61-10.07,36.21,13.32,33.33-6,50.38-26.39,69.9-35.89,34.3-70.12,70.31-105.57,105.07-32.93,32.3-66.56,63.9-99.88,95.8l8.64,13.22c8.55-4.3,18.89-6.78,25.37-13.17,64.37-63.54,128.12-127.69,192-191.73,33.58-33.67,63.54-33.75,97.26-.1q49.2,49.11,98.42,98.19c15.24,15.14,30.73,30,45,44l51.75-48C1187.84,1167.3,1152.22,1132.76,1117.73,1097.15Z" style="fill: inherit;"/></g></svg>