<svg xmlns="http://www.w3.org/2000/svg" xmlns:xlink="http://www.w3.org/1999/xlink" preserveAspectRatio="xMidYMid meet" version="1.0" viewBox="0.0 0.0 400.0 378.7" zoomAndPan="magnify" style="fill: rgb(0, 0, 0);" original_string_length="7584" width="72.41635825437812px" height="68.59804118278363px"><g id="__id109_s9z7j097mb"><path clip-rule="evenodd" d="M152.67,237.87c0,0-0.01,29.21,2.31,37.39 c2.31,8.18,25.07,24.18,33.61,27.92c8.54,3.73,27.92,0.18,32.72-1.25c4.8-1.42,18.32-11.56,20.27-13.87 c1.95-2.31,9.64-18.41,9.64-18.41l-0.75-32.09c0,0-15.49,16.7-38.06,15.46c-22.57-1.24-30.57-1.06-37.33-4.26 C168.31,245.56,152.67,237.87,152.67,237.87L152.67,237.87z" fill-rule="evenodd" style="fill: rgb(255, 255, 255);"/></g><g id="__id110_s9z7j097mb"><path clip-rule="evenodd" d="M283.02,113.52c-40.5,1.54-74.54-7.8-102.11-28.01l0,0 c-9.46,12.37-29.91,22.03-61.34,28.98c3.89-50.67,30.68-76.92,80.37-78.77C245.6,39.19,273.29,65.12,283.02,113.52z M250.51,239.58 c-13.31,11.36-30.54,18.25-49.3,18.25h-0.82c-8.19,0-16.07-1.37-23.42-3.89c-3.3-1.14-6.5-2.5-9.56-4.07 c-4.56-2.28-8.86-5-12.85-8.11c-0.63-0.49-1.26-1-1.87-1.51c0.03,3.33,0.11,9.71,0.39,16.26l0.89,0.57c1.48,0.94,3,1.83,4.54,2.68 v-0.07c1.61,0.91,3.24,1.77,4.91,2.58c11.25,5.32,23.78,8.34,36.97,8.46c0.27,0,0.55,0,0.82,0c18.36,0,35.46-5.63,49.67-15.24 L250.51,239.58L250.51,239.58z" fill-rule="evenodd" style="fill: rgb(248, 188, 50);"/></g><g id="__id111_s9z7j097mb"><path clip-rule="evenodd" d="M5.82,371.19l389.06,0.71c0,0-5.33-48.9-19.38-68.46 s-52.81-35.56-64.73-38.76c-11.91-3.2-60.99-1.07-60.99-1.07s-13.93,30.99-28.63,35.92c-14.7,4.92-39.47,3.56-52.99-5.51 c-13.51-9.07-19.74-31.12-19.74-31.12l-52.1-1.07c0,0-46.94,13.16-65.43,34.14C12.4,316.96,8.14,340.79,5.82,371.19L5.82,371.19z" fill-rule="evenodd" style="fill: rgb(244, 224, 66);"/></g><g id="__id112_s9z7j097mb"><path clip-rule="evenodd" d="M212.4,253.02c-44.45,5.34-61.88-17.07-70.59-25.6 c-8.71-8.54-23.47-48.19-23.47-48.19l0.3-63.56c0,0,30.38-6.26,40.42-12.9c10.04-6.64,23.53-16.05,23.53-16.05 s31.17,18.36,46.89,21.58c15.72,3.22,50.49,3.71,50.49,3.71h0c0,0,3.2,69.88,0.35,79.48C277.48,201.1,256.85,247.69,212.4,253.02z M151.54,271.39c-0.26-0.6-0.5-1.18-0.73-1.74h-41.63c-31.32,0-59.79,11.85-80.42,30.93c-1.95,1.8-3.83,3.68-5.64,5.61 C11.1,324.68,7.77,345.61,5.82,371.19l3.54,0.01v0c1.05-23.92,12.06-45.58,29.27-61.5c18.11-16.75,43.09-27.15,70.56-27.15h44.3 c-0.65-2.22-1.14-4.49-1.49-6.81C151.79,274.3,151.63,272.85,151.54,271.39z M379.06,309.35c-2.65-3.07-5.47-6-8.46-8.77 c-20.56-19.08-48.93-30.93-80.14-30.93v0h-39.23c-0.06,2.23-0.27,4.42-0.6,6.58c-0.34,2.15-0.81,4.26-1.41,6.32h41.24 c27.37,0,52.27,10.4,70.31,27.15c17.32,16.08,28.34,38,29.2,62.2l4.9,0.01C394.87,371.9,390.45,331.37,379.06,309.35z M141.62,73.75 c15-13.8,35.69-22.37,58.45-22.37s43.45,8.57,58.45,22.37c11.07,10.19,19.05,23.23,22.46,37.77c2.1-0.02,4.21-0.07,6.34-0.15 c-4.16-20.7-11.61-37.28-22.34-49.76c-17.2-14.35-40-23.13-64.91-23.13l0,0c-17.7,0-34.34,4.43-48.65,12.14 C139.44,60.29,131.3,74.04,127,91.88C130.89,85.18,135.83,79.08,141.62,73.75z" fill-rule="evenodd" style="fill: rgb(255, 255, 255);"/></g><g id="__id113_s9z7j097mb"><path clip-rule="evenodd" d="M115.28,134.08v30c0,11.71-9.49,21.2-21.2,21.2 s-21.2-9.49-21.2-21.2v-30c0-11.71,9.49-21.2,21.2-21.2S115.28,122.37,115.28,134.08z M305.81,112.75c-11.71,0-21.2,9.49-21.2,21.2 v30c0,11.71,9.49,21.2,21.2,21.2s21.2-9.49,21.2-21.2v-30C327.01,122.24,317.52,112.75,305.81,112.75z M213.22,199.6 c-7.22,0-13.07,5.89-13.07,13.16c0,7.27,5.85,13.16,13.07,13.16c7.22,0,13.07-5.89,13.07-13.16 C226.29,205.49,220.44,199.6,213.22,199.6z" fill-rule="evenodd" style="fill: rgb(79, 160, 34);"/></g><g id="__id114_s9z7j097mb"><path d="M369.07,287.68c-19.08-19.08-45.42-30.93-74.38-30.93h-36.42c0.01-0.48,0.04-0.96,0.04-1.44v-17.48 c1.58-1.37,3.11-2.8,4.59-4.28c4.5-4.5,8.53-9.49,12-14.86c18.23-2.09,32.47-8.45,36.11-25.38c5.79-1.14,10.97-4,14.99-8.02 c5.29-5.29,8.58-12.6,8.58-20.63v-32.37c0-8.04-3.29-15.34-8.58-20.63l-0.41-0.38c-3.49-3.36-7.8-5.85-12.58-7.17 c0.01-0.12,0.02-0.23,0.02-0.35c0-28.61-12.45-54.59-32.51-73.41C260.55,11.62,233.06,0,202.85,0h-5.69 c-30.21,0-57.7,11.62-77.66,30.35c-20.06,18.82-32.51,44.8-32.51,73.41c0,0.12,0.01,0.23,0.02,0.35c-4.95,1.36-9.4,3.99-12.96,7.54 l-0.03,0.03c-5.29,5.3-8.58,12.6-8.58,20.61v32.37c0,7.82,3.13,14.95,8.2,20.22l0.38,0.41c5.29,5.29,12.59,8.58,20.63,8.58 c6.76,0,12.99-2.33,17.95-6.21c3.46,17.71,12.2,33.59,24.51,45.9c2.31,2.31,4.74,4.48,7.29,6.53v15.24l0,0 c0,0.48,0.02,0.96,0.04,1.44h-39.12c-28.97,0-55.3,11.85-74.38,30.93C11.85,306.76,0,333.1,0,362.06v10.18 c0,3.56,2.89,6.45,6.45,6.45H200c0,0,0,0,0,0s0,0,0,0h193.55c3.56,0,6.45-2.89,6.45-6.45v-10.18 C400,333.1,388.15,306.76,369.07,287.68z M282.53,203.98c2.12-5.22,3.77-10.69,4.87-16.34c2.97,2.33,6.41,4.1,10.14,5.14 C295.09,198.47,289.72,201.93,282.53,203.98z M316.86,120.77c2.96,2.96,4.8,7.03,4.8,11.51v32.37c0,4.48-1.84,8.56-4.8,11.51 c-2.96,2.96-7.04,4.8-11.52,4.8s-8.56-1.84-11.51-4.8h-0.03c-2.94-2.94-4.77-7.02-4.77-11.51v-32.37c0-4.5,1.83-8.57,4.77-11.51 l0.03-0.03c2.94-2.94,7.02-4.77,11.52-4.77v0c4.35,0,8.32,1.71,11.23,4.49L316.86,120.77z M128.31,39.72 c17.64-16.55,42-26.82,68.84-26.82h5.69c26.83,0,51.2,10.27,68.84,26.82c17.49,16.41,28.37,39.01,28.42,63.84 c-4.2,0.77-8.09,2.45-11.47,4.83c-2-21.16-11.48-40.23-25.75-54.5c-16.13-16.13-38.4-26.15-62.89-26.15s-46.76,10.02-62.89,26.15 c-14.27,14.27-23.75,33.34-25.75,54.5c-3.38-2.38-7.27-4.06-11.47-4.83C99.95,78.73,110.82,56.13,128.31,39.72z M275.55,107.51 c-15.2-0.06-29.8-2.01-43.77-5.83c-16-4.38-31.27-11.26-45.79-20.63c-2.49-1.6-5.86-1.31-8.03,0.88 c-6.43,6.44-14.68,11.81-24.76,16.1c-8.3,3.53-17.85,6.31-28.6,8.37c2.32-16.81,10.16-31.92,21.64-43.4 c13.8-13.8,32.84-22.37,53.77-22.37c20.93,0,39.97,8.57,53.77,22.37C265.5,74.73,273.43,90.26,275.55,107.51z M94.65,180.96 c-4.48,0-8.56-1.84-11.51-4.8l-0.3-0.28c-2.78-2.92-4.49-6.88-4.49-11.23v-32.37c0-4.5,1.83-8.57,4.77-11.51l0.03-0.03 c2.94-2.94,7.02-4.77,11.52-4.77h0c4.5,0,8.57,1.83,11.51,4.77v0.03c2.96,2.96,4.8,7.03,4.8,11.51v32.37c0,4.48-1.84,8.56-4.8,11.51 C103.21,179.12,99.13,180.96,94.65,180.96z M123.86,170.66v-51.02c12.93-2.27,24.39-5.52,34.36-9.77 c9.76-4.15,18.11-9.27,25.06-15.33c14.31,8.7,29.35,15.22,45.12,19.53c15.28,4.18,31.19,6.28,47.74,6.29v50.29 c0,12.89-3.26,25.05-8.97,35.72c-9.91,0.66-21.16,0.25-32.23-0.17l-2.26-0.08c-1.01-3.31-2.79-6.28-5.13-8.68 c-3.79-3.88-9.03-6.29-14.79-6.29s-11,2.4-14.79,6.29c-3.74,3.83-6.06,9.11-6.06,14.92s2.32,11.09,6.06,14.92 c3.79,3.88,9.03,6.29,14.79,6.29s11-2.4,14.79-6.29c2.25-2.31,3.97-5.14,5-8.29l1.94,0.07c7.96,0.3,15.99,0.6,23.71,0.54 c-1.41,1.67-2.88,3.29-4.42,4.84c-13.8,13.8-32.84,22.37-53.77,22.37c-12.71,0-24.71-3.17-35.27-8.74c-3.5-1.9-6.83-4.08-9.95-6.5 c-0.42-0.32-0.87-0.58-1.33-0.79c-2.53-1.97-4.95-4.08-7.22-6.34C132.43,210.63,123.86,191.59,123.86,170.66z M220.7,212.36 c0,2.34-0.91,4.45-2.38,5.95c-1.42,1.46-3.4,2.36-5.58,2.36s-4.16-0.9-5.58-2.36c-1.47-1.5-2.38-3.61-2.38-5.95 c0-2.34,0.91-4.45,2.38-5.95c1.42-1.46,3.4-2.36,5.58-2.36s4.16,0.9,5.58,2.36C219.79,207.91,220.7,210.02,220.7,212.36z M163.53,251.84c2.62,1.21,5.3,2.31,8.05,3.26c8.2,2.82,16.96,4.4,26.04,4.57c0.09,0,0.18,0,0.27,0.01 c0.43,0.01,0.85,0.03,1.28,0.03h4.34c9.63,0,18.92-1.62,27.6-4.6c4.97-1.71,9.75-3.88,14.28-6.45v6.66 c0,11.74-4.81,22.41-12.55,30.15c-7.74,7.74-18.42,12.55-30.15,12.55H200c-11.74,0-22.41-4.81-30.15-12.55 c-7.74-7.74-12.55-18.42-12.55-30.15v-6.59C159.33,249.83,161.41,250.88,163.53,251.84z M12.9,362.06 c0-25.41,10.4-48.51,27.15-65.27c16.75-16.75,39.86-27.15,65.27-27.15h40.98c2.57,9.56,7.62,18.12,14.43,24.93 c8.63,8.63,20.09,14.45,32.82,15.94v55.27H12.9V362.06z M387.1,365.79H206.45v-55.02c13.81-0.93,26.28-6.94,35.52-16.19 c6.81-6.81,11.86-15.38,14.43-24.93h38.28c25.41,0,48.51,10.4,65.26,27.15c16.75,16.75,27.15,39.86,27.15,65.27V365.79z" style="fill: rgb(54, 56, 62);"/></g></svg>