<svg xmlns="http://www.w3.org/2000/svg" xmlns:xlink="http://www.w3.org/1999/xlink" preserveAspectRatio="xMidYMid meet" version="1.0" viewBox="4.6 -9.3 546.9 521.1" zoomAndPan="magnify" style="fill: rgb(0, 0, 0);" original_string_length="5913" width="72.00176078345623px" height="68.59804118278376px"><g><g id="__id90_s9z7j097mb"><path clip-rule="evenodd" d="M292.4,466.8c-0.5,27.3-41,27.2-41.5,0C251.4,439.5,291.9,439.5,292.4,466.8L292.4,466.8z M124.2,350.8v117.4 c0,21,17.2,38.2,38.2,38.2h218.5c21,0,38.2-17.2,38.2-38.2v-68.7l-5.8-4.1c-9.2,1-19.1,1.1-28.4,0.4v27.4c0,2.1-1.7,3.9-3.9,3.9 H162.2c-2.1,0-3.9-1.7-3.9-3.9v-63.4c0.2,6-7.3,10-12.1,6.3L124.2,350.8z" fill-rule="evenodd" style="fill: rgb(198, 216, 251);"/></g><g id="__id91_s9z7j097mb"><path clip-rule="evenodd" d="M158.4,170.1v-123c0-2.1,1.7-3.9,3.9-3.9h216.9c7.3-7.3,13-13.4,17.1-16.1c0.5-4.5,2.3-8.7,5-12.2 c-5.9-3.7-12.9-5.9-20.3-5.9H162.4c-21,0-38.2,17.2-38.2,38.2v122.8H158.4z" fill-rule="evenodd" style="fill: rgb(198, 216, 251);"/></g><g id="__id92_s9z7j097mb"><path clip-rule="evenodd" d="M385,171.7v86c11.2-0.9,23.4-0.5,34.2,1v-79C409.6,177,397.9,173.8,385,171.7z" fill-rule="evenodd" style="fill: rgb(198, 216, 251);"/></g><g id="__id93_s9z7j097mb"><path clip-rule="evenodd" d="M301.1,93.3c2.8,10.5,19.7,73.5,22.1,82.4c38.7-14.9,79.7,0.9,115.1,8.4c-1.8-2.4-3.1-5.1-3.9-8.1L396.9,36.1 c-0.8-3-1-6-0.7-9c-26.3,22.6-50.5,56.6-95.5,64.8L301.1,93.3z" fill-rule="evenodd" style="fill: rgb(198, 216, 251);"/></g><g id="__id94_s9z7j097mb"><path clip-rule="evenodd" d="M323.1,175.7c-10.3,2.5-27.2,8.8-37.7,6.6l13.2,49.4c2.7,10.1,13.2,16.2,23.3,13.5 c10.1-2.7,16.2-13.2,13.5-23.3L323.1,175.7z" fill-rule="evenodd" style="fill: rgb(198, 216, 251);"/></g><g id="__id95_s9z7j097mb"><path d="M380.9,511.8H162.4c-24,0-43.6-19.6-43.6-43.6V350.8c0.1-7,10.7-7.1,10.8,0v117.4c0,18.1,14.7,32.9,32.8,32.9 h218.5c18.1,0,32.9-14.7,32.9-32.9v-68.7c-0.1-7,10.8-7,10.8,0v68.7C424.5,492.2,404.9,511.8,380.9,511.8z M419.1,264.1 c-3,0-5.4-2.4-5.4-5.4v-79.1c0-3,2.4-5.4,5.4-5.4s5.4,2.4,5.4,5.4v79.1C424.5,261.7,422.1,264.1,419.1,264.1z M124.2,175.5 c-3,0-5.4-2.4-5.4-5.4V47.3c0-24,19.6-43.6,43.6-43.6h218.5c7.4,0,29.6,3.8,24.9,14.1c-1.6,2.5-4.9,3.3-7.4,1.7 c-5.2-3.3-11.3-5.1-17.5-5.1H162.4c-18.1,0-32.8,14.7-32.8,32.9v122.8C129.6,173.1,127.2,175.5,124.2,175.5z" style="fill: rgb(66, 141, 255);"/></g><g id="__id96_s9z7j097mb"><path d="M381.1,432.5H162.2c-5.1,0-9.3-4.2-9.3-9.3v-86.1c0-3,2.4-5.4,5.4-5.4c3,0,5.4,2.4,5.4,5.4v84.7h215.9v-25.9 c0-7,10.7-7,10.8,0v27.4C390.4,428.4,386.2,432.5,381.1,432.5z M385,263c-3,0-5.4-2.4-5.4-5.4v-86c0-3,2.4-5.4,5.4-5.4 c3,0,5.4,2.4,5.4,5.4v86C390.4,260.6,387.9,263,385,263z M158.4,175.5c-3,0-5.4-2.4-5.4-5.4v-123c0-5.1,4.1-9.3,9.3-9.3h216.9 c3,0,5.4,2.4,5.4,5.4s-2.4,5.4-5.4,5.4H163.7v121.5C163.7,173.1,161.3,175.5,158.4,175.5z" style="fill: rgb(66, 141, 255);"/></g><g id="__id97_s9z7j097mb"><path d="M271.7,492.9c-34.4-0.9-34.4-51.3,0-52.2C306.1,441.6,306.1,492,271.7,492.9z M271.7,451.4 c-20.2,0.4-20.2,30.4,0,30.7C291.8,481.8,291.8,451.8,271.7,451.4z" style="fill: rgb(66, 141, 255);"/></g><g id="__id98_s9z7j097mb"><path d="M150.6,373c-2.6,0-5.2-0.8-7.5-2.4l-50.6-35.4c-0.4-0.3-0.8-0.4-1.3-0.4H45.1c-22.3,0-40.5-18.2-40.5-40.5 v-89.1c0-22.3,18.2-40.5,40.5-40.5h144.5c22.3,0,40.5,18.2,40.5,40.5v89.1c0,22.3-18.2,40.5-40.5,40.5h-23.5c-1.3,0-2.3,1-2.3,2.3 v22.8C163.9,367,157.6,373.1,150.6,373z M45.1,175.5c-16.4,0-29.7,13.3-29.7,29.7v89.1c0,16.4,13.3,29.7,29.7,29.7h46.1 c2.7,0,5.3,0.8,7.5,2.4l50.6,35.4c1.4,1.1,3.8-0.1,3.7-1.9v-22.8c0-7.2,5.9-13.1,13.1-13.1h23.5c16.4,0,29.7-13.3,29.7-29.7v-89.1 c0-16.4-13.3-29.7-29.7-29.7H45.1z" style="fill: rgb(66, 141, 255);"/></g><g id="__id99_s9z7j097mb"><path d="M169.5,232.5H65.2c-7,0-7.1-10.7,0-10.8h104.4C176.5,221.8,176.6,232.5,169.5,232.5z" style="fill: rgb(66, 141, 255);"/></g><g id="__id100_s9z7j097mb"><path d="M169.5,277.7H65.2c-7,0-7.1-10.7,0-10.8h104.4C176.5,267,176.6,277.7,169.5,277.7z" style="fill: rgb(66, 141, 255);"/></g><g id="__id101_s9z7j097mb"><path d="M317.1,251.2c-10.7,0.1-21-7.7-23.6-18.1c0,0-13.2-49.4-13.2-49.4c-1.8-6.8,8.5-9.6,10.4-2.8 c0,0,13.2,49.4,13.2,49.4c1.7,7.1,9.7,11.7,16.8,9.7c7.3-2,11.6-9.5,9.7-16.8l-16-59.7c-2-6.4,8.1-10,10.2-3.4 c0,0,16.2,60.4,16.2,60.4C345,235.6,332.9,251.4,317.1,251.2z" style="fill: rgb(66, 141, 255);"/></g><g id="__id102_s9z7j097mb"><path d="M291.3,188.1c-56.2-0.5-67.3-80.5-12.6-95.8c0,0,20.6-5.5,20.6-5.5c2.8-0.8,5.8,0.9,6.6,3.8l22.4,83.7 c0.8,2.9-0.9,5.8-3.8,6.6l-20.6,5.5C299.7,187.5,295.5,188.1,291.3,188.1z M302.5,181.2h0.1H302.5z M296.9,98.5l-15.4,4.1 c-48,14.1-29,85.1,19.7,73.4h0l15.4-4.1L296.9,98.5z" style="fill: rgb(66, 141, 255);"/></g><g id="__id103_s9z7j097mb"><path d="M438.2,189.4c-33.8-5.7-70.4-23.9-113.2-8.7c-2.9,1.1-6.3-0.6-7-3.6c-3.2-12.1-18.9-70.5-22.5-83.8 c-0.4-1.5-0.2-3,0.7-4.3c0.8-1.3,2.1-2.2,3.6-2.4c44.6-8.2,67.2-42,93.4-64c2.5-1.6,5.8-1,7.5,1.5c1.6,2.5,1,5.8-1.5,7.5 c-24.9,21.5-47.3,53.3-91.8,64.4l19.5,72.7c35.1-10.5,71.6-0.4,93.9,5.8c7.6,2.1,14.1,3.9,17.8,4.1 C445.3,179,445,189.5,438.2,189.4z" style="fill: rgb(66, 141, 255);"/></g><g id="__id104_s9z7j097mb"><path d="M457.6,199.2c-13,0-25-8.7-28.5-21.9L391.7,37.5c-7.4-24.3,21.6-46.8,43.3-33.2c6.8,4,11.7,10.3,13.8,17.9 L486.2,162C491.4,180.4,476.7,199.5,457.6,199.2z M420.2,11.1c-11.9-0.3-21.5,12.2-18.1,23.6c0,0,37.5,139.8,37.5,139.8 c6.7,23.6,42.2,14.3,36.2-9.7c0,0-37.5-139.8-37.5-139.8C436.3,17,428.4,11,420.2,11.1z M413.9,6.5h0.1H413.9z" style="fill: rgb(66, 141, 255);"/></g><g id="__id105_s9z7j097mb"><path d="M452.7,426.5c-2.9,0-5.7-0.9-8.2-2.7L411.9,401c-60,7.1-126.8-28.6-125-74.3c0-41.3,49.4-74.9,110.2-74.9 c93.9-1.8,154.4,83.7,70.1,132.8c-0.1,0.9,0,26.5,0,27.3C467.4,419.9,460.4,426.6,452.7,426.5z M413.3,390.1 c0.5-1.9,36.3,24.6,37.3,24.9c2.3,1.8,5.9-0.1,5.8-3c0.6-5.5-1.6-29.2,1.8-33.7c19.9-12.2,39.6-30.5,38.4-51.5 c0-35.4-44.6-64.2-99.4-64.2C249,269.9,277.3,401.5,413.3,390.1z" style="fill: rgb(66, 141, 255);"/></g><g id="__id106_s9z7j097mb"><path d="M437.8,331.4c-7.1,0-7-10.8,0-10.9C444.9,320.5,444.8,331.4,437.8,331.4z" style="fill: rgb(66, 141, 255);"/></g><g id="__id107_s9z7j097mb"><path d="M397.1,331.4c-7.1,0-7-10.8,0-10.9C404.2,320.5,404.1,331.4,397.1,331.4z" style="fill: rgb(66, 141, 255);"/></g><g id="__id108_s9z7j097mb"><path d="M356.4,331.4c-7.1,0-7-10.8,0-10.9C363.5,320.5,363.5,331.4,356.4,331.4z" style="fill: rgb(66, 141, 255);"/></g></g></svg>