<svg xmlns="http://www.w3.org/2000/svg" xmlns:xlink="http://www.w3.org/1999/xlink" data-name="Layer 1" preserveAspectRatio="xMidYMid meet" version="1.0" viewBox="-0.8 -0.0 584.3 415.8" zoomAndPan="magnify" style="fill: rgb(0, 0, 0);" original_string_length="1402" width="27.310788613764224px" height="19.454260382407394px"><g id="__id89_s4e53uwjar"><path d="M4.01,264.87c23.23,34.6,45.59,69.78,67.02,105.53,6.07,10.13,12.07,20.31,18,30.53,5.3,9.13,15.36,14.86,25.9,14.86,5.42-.02,10.46-1.38,15.14-4.1,4.51-2.67,8.1-6.25,10.76-10.76,4.35-5.96,8.78-11.87,13.29-17.71l-4.69,6.07c22.22-28.74,46.32-55.99,71.79-81.88,25.89-26.31,53.18-51.23,81.41-75.01,16.15-13.6,32.61-26.82,49.32-39.73l-6.07,4.69c26.57-20.51,53.74-40.22,81.35-59.3,28.41-19.64,57.3-38.66,87.44-55.55,17.27-9.67,34.95-18.62,53.07-26.61,6.43-2.83,12.01-11.47,13.79-17.93,1.98-7.18,1.08-16.74-3.02-23.12s-10.28-12.04-17.93-13.79l-7.98-1.07c-5.42,.02-10.46,1.38-15.14,4.1-35.52,15.65-69.22,35.06-101.78,56.14-31.54,20.42-62.32,42.1-92.5,64.46s-62.54,47.68-92.37,73.27c-27.62,23.7-54.28,48.54-79.54,74.75-26.55,27.56-51.28,56.72-74.33,87.26-2.67,3.53-5.3,7.09-7.91,10.67h51.81c-20.87-35.99-42.66-71.45-65.36-106.32-6.48-9.96-13.04-19.87-19.66-29.74-4.38-6.52-10.19-11.66-17.93-13.79-7.18-1.98-16.74-1.08-23.12,3.02s-12.04,10.28-13.79,17.93-1.47,16.43,3.02,23.12h0Z" style="fill: rgb(204, 163, 0);"/></g></svg>